<?xml version="1.0" encoding="utf-8"?>
<!-- Generator: Adobe Illustrator 15.0.0, SVG Export Plug-In  -->
<!DOCTYPE svg PUBLIC "-//W3C//DTD SVG 1.1//EN" "http://www.w3.org/Graphics/SVG/1.1/DTD/svg11.dtd" [
	<!ENTITY ns_flows "http://ns.adobe.com/Flows/1.0/">
]>
<svg version="1.1"
	 xmlns="http://www.w3.org/2000/svg" xmlns:xlink="http://www.w3.org/1999/xlink" xmlns:a="http://ns.adobe.com/AdobeSVGViewerExtensions/3.0/"
	 x="0px" y="0px" width="247px" height="179px" viewBox="-1.373 5.219 247 179"
	 overflow="visible" enable-background="new -1.373 5.219 247 179" xml:space="preserve">
<defs>
</defs>
<rect x="26.053" fill="#FFFFFF" width="192" height="36"/>
<path fill="#0BA9D1" d="M78.901,94.72c0-31.375,17.476-58.667,43.226-72.674c-11.725-6.378-25.165-10.002-39.453-10.002
	C37.016,12.043,0,49.06,0,94.72c0,45.659,37.016,82.674,82.674,82.674c14.288,0,27.729-3.625,39.453-10.003
	C96.377,153.385,78.901,126.094,78.901,94.72z"/>
<path fill="#51B748" d="M161.576,12.043c-14.287,0-27.728,3.624-39.449,10.002c25.748,14.007,43.224,41.299,43.224,72.674
	c0,31.374-17.476,58.665-43.224,72.671c11.722,6.378,25.162,10.003,39.449,10.003c45.661,0,82.677-37.016,82.677-82.674
	C244.253,49.06,207.237,12.043,161.576,12.043z"/>
<path fill="#00733B" d="M165.351,94.72c0-31.375-17.476-58.667-43.224-72.674C96.377,36.053,78.901,63.345,78.901,94.72
	c0,31.374,17.476,58.665,43.226,72.671C147.875,153.385,165.351,126.094,165.351,94.72z"/>
<path fill="#FFFFFF" d="M46.55,139.994v-16.809h7.053c5.295,0,9.099,3.176,9.099,8.393c0,5.215-3.804,8.416-9.072,8.416H46.55z
	 M58.265,131.578c0-2.596-1.562-4.611-4.636-4.611h-2.746v9.248h2.72C56.553,136.215,58.265,134.072,58.265,131.578z"/>
<path fill="#FFFFFF" d="M64.872,139.994v-16.809H77.19v3.781h-7.985v2.62h7.809v3.779h-7.809v2.849h7.985v3.779H64.872z"/>
<path fill="#FFFFFF" d="M78.504,137.627l2.291-3.379c1.211,1.21,3.076,2.218,5.395,2.218c1.461,0,2.368-0.503,2.368-1.337
	c0-2.215-9.499-0.377-9.499-6.854c0-2.822,2.367-5.34,6.676-5.34c2.698,0,5.04,0.805,6.832,2.343l-2.369,3.251
	c-1.412-1.186-3.252-1.765-4.916-1.765c-1.26,0-1.814,0.429-1.814,1.159c0,2.066,9.501,0.502,9.501,6.753
	c0,3.376-2.497,5.62-7.005,5.62C82.561,140.297,80.191,139.213,78.504,137.627z"/>
<path fill="#FFFFFF" d="M94.984,139.994v-16.809h4.333v16.809H94.984z"/>
<path fill="#FFFFFF" d="M101.488,131.604c0-5.344,4.08-8.693,9.094-8.693c3.754,0,6.024,1.988,7.183,4.082l-3.63,1.891
	c-0.629-1.109-1.914-2.145-3.553-2.145c-2.746,0-4.687,2.094-4.687,4.865c0,2.744,1.94,4.862,4.687,4.862
	c1.237,0,2.495-0.503,3.1-1.008v-1.31h-3.777v-3.805h8.11v6.677c-1.788,1.991-4.258,3.276-7.433,3.276
	C105.568,140.297,101.488,136.945,101.488,131.604z"/>
<path fill="#FFFFFF" d="M132.004,139.994l-7.106-9.727v9.727h-4.333v-16.809h4.458l6.805,9.249v-9.249h4.356v16.809H132.004z"/>
<path fill="#FFFFFF" d="M144.81,131.604c0-5.191,3.928-8.693,9.093-8.693c4.059,0,6.249,2.291,7.334,4.484l-3.73,1.789
	c-0.552-1.334-1.99-2.445-3.604-2.445c-2.746,0-4.688,2.094-4.688,4.865c0,2.744,1.941,4.862,4.688,4.862
	c1.613,0,3.052-1.108,3.604-2.444l3.73,1.764c-1.085,2.143-3.275,4.512-7.334,4.512C148.737,140.297,144.81,136.77,144.81,131.604z"
	/>
<path fill="#FFFFFF" d="M162.246,131.604c0-5.115,3.855-8.693,8.995-8.693c5.144,0,8.97,3.578,8.97,8.693s-3.826,8.693-8.97,8.693
	C166.102,140.297,162.246,136.719,162.246,131.604z M175.805,131.604c0-2.746-1.789-4.865-4.563-4.865
	c-2.772,0-4.586,2.119-4.586,4.865c0,2.72,1.813,4.862,4.586,4.862C174.016,136.466,175.805,134.323,175.805,131.604z"/>
<path fill="#FFFFFF" d="M80.878,72.487c1.145,0,2.124-0.173,2.941-0.52c0.819-0.349,1.497-0.802,2.036-1.362
	c0.537-0.56,0.93-1.199,1.174-1.918c0.249-0.717,0.372-1.456,0.372-2.217c0-0.83-0.151-1.546-0.455-2.151
	c-0.302-0.606-0.712-1.094-1.227-1.464c-0.515-0.371-1.122-0.644-1.814-0.823c-0.695-0.18-1.437-0.271-2.223-0.271
	c-1.253,0-2.299,0.198-3.142,0.59c-0.841,0.391-1.514,0.874-2.016,1.446c-0.504,0.571-0.868,1.181-1.093,1.83
	c-0.222,0.651-0.337,1.235-0.337,1.751c0,1.544,0.471,2.783,1.414,3.715C77.45,72.022,78.908,72.487,80.878,72.487z"/>
<path fill="#FFFFFF" d="M244.253,79.89c-1.212-7.903-4.41-13.207-7.691-20.206c0.303,1.108,0.729,2.146,1.007,3.082
	c2.326,7.89-0.952,23.236-5.785,30.632c-5.712,8.741-11.365,12.161-12.038,12.54c0.584-3.809,1.154-7.373,1.716-10.691
	c0.225-1.411,0.459-2.829,0.706-4.252c0.245-1.423,0.486-2.773,0.722-4.051c0.235-1.278,0.454-2.42,0.656-3.428
	c0.202-1.008,0.372-1.805,0.507-2.387c0.065-0.269,0.1-0.504,0.1-0.706c0-0.649-0.234-1.126-0.706-1.429s-1.055-0.455-1.748-0.455
	c-0.583,0-1.199,0.101-1.848,0.305c-0.65,0.2-1.274,0.503-1.868,0.906c-0.594,0.404-1.122,0.902-1.579,1.498
	c-0.459,0.594-0.778,1.271-0.959,2.033l-2.354,9.884c-0.092,0.717-0.287,1.613-0.589,2.69c-0.303,1.075-0.697,2.117-1.191,3.125
	c-0.493,1.008-1.077,1.873-1.747,2.589c-0.673,0.718-1.427,1.076-2.255,1.076c-0.517,0-0.94-0.129-1.279-0.386
	c-0.334-0.258-0.604-0.595-0.805-1.01c-0.202-0.414-0.34-0.885-0.42-1.411c-0.08-0.527-0.116-1.069-0.116-1.63
	c0-1.077,0.087-2.32,0.267-3.732c0.179-1.411,0.421-2.853,0.725-4.32c0.302-1.468,0.648-2.903,1.04-4.304
	c0.39-1.402,0.791-2.617,1.195-3.649c0.135-0.335,0.228-0.648,0.283-0.939c0.057-0.293,0.082-0.561,0.082-0.808
	c0-0.829-0.275-1.44-0.834-1.833c-0.564-0.392-1.237-0.587-2.021-0.587c-0.919,0-1.859,0.262-2.822,0.789
	c-0.965,0.526-1.708,1.294-2.219,2.303c-0.693,1.412-1.313,2.808-1.851,4.185c-0.538,1.378-0.986,2.809-1.343,4.287
	c-0.362,1.479-0.635,3.038-0.825,4.674c-0.108,0.925-0.184,1.909-0.229,2.934c-0.226,0.156-0.453,0.312-0.673,0.461
	c-0.604,0.402-1.234,0.803-1.883,1.194c-0.651,0.392-1.285,0.74-1.901,1.042c-0.615,0.302-1.198,0.543-1.747,0.723
	c-0.55,0.18-1.036,0.269-1.463,0.269c-0.182,0-0.371-0.128-0.567-0.388c-0.206-0.258-0.396-0.604-0.576-1.041
	s0.352-0.929,0.227-1.479c-0.121-0.55,0.5-1.115,0.5-1.698v-0.471c0-0.448-0.525-0.908-0.416-1.379c0.113-0.471-0.111-0.912,0-1.327
	c0.11-0.414,0.056-0.799,0.181-1.16c0.12-0.357,0.155-0.65,0.268-0.874c1.031-2.018,2.095-4.084,3.269-6.204
	c1.18-2.118,2.326-4.269,3.493-6.454c1.161-2.185,2.275-4.388,3.349-6.606c1.075-2.218,2.02-4.431,2.839-6.639
	c0.818-2.208,1.464-4.404,1.947-6.589c0.481-2.185,0.718-4.332,0.718-6.439c0-0.939-0.073-1.866-0.218-2.772
	c-0.145-0.906-0.397-1.719-0.754-2.436c-0.362-0.718-0.855-1.295-1.48-1.733c-0.629-0.437-1.425-0.656-2.389-0.656
	c-1.411,0-2.802,0.428-4.169,1.278c-1.367,0.852-2.679,2.022-3.933,3.513c-1.255,1.491-2.453,3.239-3.599,5.244
	c-1.143,2.006-2.2,4.164-3.175,6.472c-0.975,2.309-1.853,4.718-2.624,7.228c-0.773,2.511-1.439,5.009-1.997,7.499
	c-0.563,2.487-0.989,4.903-1.282,7.243c-0.29,2.344-0.437,4.512-0.437,6.506c0,2.594,0.22,5.071,0.654,7.43
	c-0.37,0.284-0.742,0.578-1.104,0.839c-0.536,0.382-1.091,0.757-1.662,1.126c-0.571,0.371-1.138,0.702-1.698,0.994
	c-0.56,0.289-1.092,0.52-1.596,0.688c-0.506,0.168-0.971,0.254-1.397,0.254c-0.446,0-0.825-0.136-1.126-0.404
	c-0.302-0.27-0.542-0.633-0.722-1.095c-0.18-0.458-0.308-0.978-0.388-1.562c-0.079-0.582-0.117-1.198-0.117-1.848
	c0-0.517,0.034-1.047,0.099-1.599c0.07-0.547,0.153-1.086,0.256-1.613c0.099-0.525,0.205-1.013,0.318-1.46
	c0.111-0.449,0.224-0.829,0.337-1.144c1.16-2.823,2.365-5.547,3.594-8.17c1.235-2.622,2.38-5.267,3.432-7.935
	c1.055-2.667,1.97-5.406,2.756-8.219c0.784-2.812,1.324-5.799,1.612-8.959c0.068-0.829,0.103-1.637,0.103-2.421
	c0-1.276-0.103-2.514-0.304-3.714c-0.2-1.2-0.53-2.251-0.992-3.16c-0.459-0.909-1.058-1.637-1.793-2.186
	c-0.743-0.549-1.639-0.824-2.694-0.824c-1.435,0-2.826,0.443-4.167,1.329c-1.347,0.885-2.614,2.112-3.798,3.68
	c-1.189,1.57-2.28,3.429-3.28,5.582c-0.999,2.151-1.866,4.495-2.607,7.025c-0.735,2.534-1.331,5.202-1.778,8.001
	c-0.45,2.802-0.707,5.637-0.772,8.507c-1.706,0.157-3.31,0.55-4.807,1.175c-1.505,0.628-2.896,1.419-4.173,2.37
	c-1.278,0.954-2.421,2.041-3.426,3.262c-1.009,1.221-1.868,2.522-2.573,3.898c-0.706,1.38-1.243,2.803-1.613,4.27
	c-0.37,1.47-0.556,2.921-0.556,4.354c0,0.436,0.022,0.866,0.055,1.293c-0.022,0.016-0.042,0.035-0.063,0.053
	c-0.529,0.425-1.04,0.802-1.546,1.125c-0.504,0.326-0.975,0.588-1.412,0.79c-0.436,0.202-0.823,0.303-1.157,0.303
	c-0.743,0-1.286-0.447-1.632-1.345c-0.348-0.896-0.522-2.039-0.522-3.43c0-0.827,0.053-1.736,0.15-2.722
	c0.103-0.986,0.231-1.983,0.391-2.992c0.155-1.007,0.327-1.994,0.519-2.957c0.19-0.964,0.364-1.849,0.521-2.657
	c0.155-0.807,0.286-1.502,0.389-2.085c0.099-0.582,0.151-0.997,0.151-1.244c0-1.658-0.331-2.958-0.992-3.9
	c-0.661-0.94-1.553-1.411-2.675-1.411c-1.12,0-2.138,0.224-3.06,0.672c-0.917,0.449-1.737,1.277-2.45,2.487
	c-0.157,0.27-0.395,0.685-0.708,1.244c-0.312,0.56-0.664,1.205-1.045,1.933c-0.379,0.729-0.789,1.491-1.226,2.287
	c-0.435,0.795-0.845,1.553-1.225,2.27c-0.383,0.717-0.719,1.445-1.009,1.996c-0.294,0.548-0.505,1.287-0.641,1.287h-0.671
	c0,0,0.033-0.559,0.1-1.019c0.068-0.458,0.15-1.044,0.253-1.661c0.101-0.618,0.207-1.312,0.318-2.041
	c0.112-0.729,0.219-1.447,0.321-2.133c0.1-0.682,0.185-1.314,0.25-1.887c0.069-0.572,0.103-1.028,0.103-1.365
	c0-1.23-0.237-2.218-0.709-2.959c-0.468-0.739-1.311-1.108-2.52-1.108c-1.211,0-2.169,0.346-2.875,1.041
	c-0.706,0.695-1.183,1.556-1.428,2.588c-0.313,1.322-0.641,2.914-0.977,4.774c-0.335,1.859-0.639,3.794-0.906,5.8
	c-0.181,1.333-0.33,2.646-0.468,3.95c-0.579,0.495-1.208,1.003-1.898,1.529c-1.26,0.953-2.59,1.832-4.003,2.64
	c-1.412,0.807-2.863,1.479-4.354,2.018c-1.488,0.538-2.908,0.806-4.251,0.806c-0.428,0-0.824-0.043-1.193-0.134
	c-0.37-0.089-0.723-0.245-1.059-0.472c-0.338-0.225-0.668-0.537-0.992-0.939c-0.323-0.405-0.654-0.908-0.993-1.514
	c1.95-0.537,3.761-1.289,5.429-2.252c1.671-0.963,3.111-2.062,4.323-3.296c1.207-1.232,2.155-2.542,2.839-3.933
	c0.683-1.389,1.026-2.779,1.026-4.17c0-1.277-0.224-2.431-0.674-3.462c-0.448-1.03-1.07-1.91-1.864-2.638
	c-0.797-0.727-1.733-1.295-2.808-1.699c-1.078-0.403-2.242-0.604-3.5-0.604c-1.543,0-2.95,0.274-4.217,0.823
	c-1.267,0.549-2.408,1.289-3.428,2.219c-1.022,0.93-1.911,2.006-2.673,3.228c-0.762,1.22-1.396,2.504-1.9,3.848
	s-0.882,2.718-1.126,4.119c-0.245,1.4-0.37,2.728-0.37,3.984c0,1.231,0.129,2.424,0.359,3.582c-0.444,0.368-0.874,0.75-1.327,1.105
	c-1.009,0.798-2.004,1.476-2.992,2.035c-0.985,0.561-1.882,0.841-2.688,0.841c-0.695,0-1.155-0.296-1.381-0.892
	c-0.225-0.594-0.335-1.395-0.335-2.402c0-1.033,0.11-2.191,0.335-3.479c0.226-1.289,0.506-2.612,0.842-3.967
	c0.338-1.356,0.693-2.712,1.074-4.068c0.383-1.356,0.742-2.623,1.079-3.799c0.333-1.177,0.615-2.23,0.839-3.161
	c0.223-0.929,0.335-1.641,0.335-2.134c0-0.583-0.168-1.046-0.504-1.395c-0.337-0.349-0.976-0.521-1.916-0.521
	c-0.518,0-1.093,0.062-1.73,0.184c-0.639,0.125-1.255,0.315-1.85,0.572c-0.594,0.258-1.127,0.594-1.598,1.01
	c-0.471,0.414-0.783,0.912-0.941,1.495c-0.4,1.681-0.868,3.519-1.394,5.514c-0.38,1.433-0.726,2.871-1.077,4.309
	c-0.8,0.476-1.652,0.916-2.59,1.306c-1.076,0.449-2.118,0.673-3.125,0.673c-0.359,0-0.702-0.068-1.027-0.202
	c-0.326-0.136-0.615-0.365-0.873-0.69c-0.259-0.324-0.465-0.755-0.624-1.294c-0.157-0.537-0.234-1.209-0.234-2.017
	c0-0.471,0.058-1.06,0.169-1.766s0.235-1.433,0.37-2.185c0.135-0.751,0.257-1.468,0.368-2.15c0.115-0.686,0.168-1.216,0.168-1.599
	c0-0.491-0.088-0.935-0.267-1.327c-0.181-0.392-0.421-0.724-0.726-0.992c-0.304-0.269-0.656-0.476-1.056-0.622
	c-0.406-0.145-0.819-0.219-1.244-0.219c-1.234,0-2.321,0.331-3.262,0.991c-0.941,0.661-1.781,1.474-2.522,2.438
	c-0.74,0.963-1.39,2-1.951,3.11c-0.409,0.813-0.779,1.548-1.129,2.248l0.032-0.356c-0.253,0.247-0.663,0.484-0.935,0.718
	c-0.036-1.015-0.199-2.038-0.199-3.081c0-1.177,0-2.179,0-3.008c0-0.693,0.124-1.244,0.09-1.647
	c-0.033-0.403-0.059-0.711-0.213-0.923c-0.16-0.214-0.365-0.348-0.688-0.404c-0.328-0.056-0.762-0.084-1.346-0.084
	c-0.513,0-0.938,0.028-1.284,0.084c-0.348,0.056-0.636,0.168-0.87,0.336c-0.238,0.167-0.437,0.397-0.619,0.688
	c-0.177,0.292-0.359,0.683-0.539,1.177c-0.29,0.739-0.58,1.681-0.87,2.824c-0.293,1.143-0.585,2.399-0.874,3.766
	c-0.291,1.368-0.567,2.807-0.824,4.32c-0.026,0.148-0.041,0.292-0.066,0.441c-0.145,0.044-0.275,0.094-0.421,0.137
	c-2.09,0.647-4.496,0.971-7.219,0.971c-0.273,0-0.511-0.035-0.702-0.104c-0.193-0.068-0.379-0.144-0.559-0.227
	c-0.176-0.082-0.376-0.156-0.6-0.226c-0.218-0.068-0.509-0.104-0.863-0.104c-0.302,0-0.595,0.042-0.868,0.125
	c-0.272,0.083-0.689,0.261-1.235,0.537l0.081-0.662c1.705-2.173,3.376-4.504,5.012-6.993c1.637-2.49,3.198-5.022,4.684-7.594
	c1.488-2.572,2.856-5.15,4.11-7.737c1.248-2.586,2.336-5.077,3.261-7.47c0.919-2.394,1.631-4.642,2.143-6.749
	c0.51-2.103,0.765-3.967,0.765-5.591c0-1.788-0.285-3.294-0.847-4.518c-0.564-1.224-1.271-2.208-2.124-2.95
	c-0.854-0.744-1.798-1.281-2.829-1.609c-1.029-0.331-2.013-0.495-2.949-0.495c-2.369,0-4.539,0.714-6.521,2.145
	c-1.981,1.43-3.776,3.377-5.387,5.839c-1.607,2.462-3.06,5.338-4.355,8.625c-1.292,3.286-2.438,6.788-3.441,10.502
	c-1.005,3.713-1.873,7.532-2.602,11.452c-0.731,3.92-1.363,7.745-1.896,11.472c-0.403,2.789-0.749,5.469-1.034,8.042
	c-5.053,5.681-10.071,11.874-12.543,19.565c-0.001,0.006-0.827,1.938-0.828,1.943c1.707,6.171,4.942,10.125,7.962,15.627
	c-0.725-2.533-0.902-5.479-0.929-10.096c-0.034-5.037,1.942-9.744,5.218-14.708c-0.153,2.124-0.263,3.886-0.324,5.233
	c-0.07,1.541-0.103,2.38-0.103,2.518c0,1.678,0.061,3.418,0.184,5.22c0.127,1.802,0.337,3.569,0.641,5.303
	c0.305,1.735,0.723,3.377,1.26,4.931c0.534,1.555,1.202,2.916,2.001,4.088c0.796,1.168,1.761,2.096,2.89,2.785
	c1.126,0.688,2.447,1.031,3.961,1.031c1.512,0,2.865-0.316,4.064-0.949c1.196-0.633,2.257-1.467,3.177-2.497
	c0.919-1.03,1.726-2.216,2.413-3.55c0.689-1.336,1.273-2.717,1.754-4.148c0.481-1.43,0.876-2.846,1.179-4.249
	c0.3-1.403,0.537-2.683,0.701-3.838c0.165-1.155,0.281-2.132,0.349-2.93c0.071-0.8,0.105-1.321,0.105-1.567
	c0-2.12-0.284-4.217-0.847-6.294c-0.563-2.077-1.191-3.956-1.878-5.634c-0.796-1.953-1.691-3.838-2.685-5.652
	c1.927-0.084,3.867-0.275,5.819-0.58c0.585-0.095,1.191-0.212,1.809-0.34c-0.006,0.045-0.011,0.091-0.015,0.136
	c-0.109,1.312-0.167,2.46-0.167,3.445c0,0.897,0.051,1.767,0.151,2.606c0.103,0.84,0.303,1.592,0.605,2.252
	c0.305,0.662,0.734,1.188,1.293,1.58c0.562,0.393,1.301,0.589,2.222,0.589c0.401,0,0.771-0.072,1.107-0.218
	c0.339-0.147,0.649-0.398,0.941-0.757c0.29-0.359,0.577-0.824,0.859-1.396c0.279-0.571,0.575-0.687,0.89-1.559L54.805,89h0.539
	c0.177,0,0.416,2.199,0.705,3.578c0.292,1.378,0.741,2.317,1.347,3.428c0.604,1.111,1.421,1.853,2.456,2.537
	c1.026,0.685,2.384,0.949,4.063,0.949c0.944,0,1.868-0.178,2.774-0.46c0.795-0.244,1.559-0.567,2.3-0.915
	c-0.247,1.588-0.384,2.998-0.384,4.231c0,1.01,0.108,1.931,0.32,2.771c0.215,0.841,0.567,1.551,1.061,2.134
	c0.494,0.583,1.137,1.034,1.935,1.36c0.795,0.324,1.776,0.485,2.943,0.485c1.299,0,2.671-0.235,4.115-0.706
	c1.445-0.473,2.861-1.059,4.252-1.766c1.39-0.706,2.684-1.479,3.882-2.319c0.28-0.194,0.543-0.386,0.801-0.575
	c0.253,0.396,0.528,0.783,0.824,1.146c1.053,1.289,2.373,2.314,3.95,3.075c1.581,0.765,3.425,1.145,5.529,1.145
	c1.348,0,2.673-0.151,3.983-0.454c1.312-0.303,2.579-0.707,3.8-1.21c1.223-0.505,2.387-1.081,3.497-1.731
	c1.108-0.649,2.146-1.311,3.112-1.984c0.075-0.055,0.152-0.116,0.232-0.172c0.024,0.381,0.055,0.76,0.1,1.131
	c0.099,0.84,0.302,1.592,0.604,2.252c0.303,0.662,0.736,1.188,1.296,1.58c0.56,0.393,1.296,0.589,2.216,0.589
	c0.742,0,1.392-0.168,1.95-0.505c0.562-0.336,1.067-1.078,1.515-1.999L129.329,89h0.539c-0.267,2-0.493,3.583-0.673,5.142
	s-0.266,3.067-0.266,4.41c0,3.431,0.416,6.064,1.257,7.846c0.843,1.782,1.878,2.688,3.112,2.688c1.232,0,2.409-0.168,3.528-0.516
	c1.123-0.346,2.196-0.793,3.228-1.341c1.032-0.55,2.022-1.171,2.976-1.866c0.13-0.094,0.255-0.187,0.382-0.279
	c0.111,0.191,0.225,0.385,0.349,0.568c0.708,1.043,1.591,1.876,2.658,2.506c1.062,0.627,2.323,0.94,3.781,0.94
	c1.03,0,2.053-0.162,3.073-0.487c1.022-0.325,2.03-0.758,3.027-1.295s1.959-1.171,2.889-1.899c0.932-0.728,1.812-1.495,2.641-2.303
	c0.538,1.3,1.172,2.343,1.898,3.127c0.73,0.784,1.461,1.384,2.187,1.798c0.73,0.416,1.402,0.688,2.018,0.824
	c0.618,0.133,1.081,0.2,1.396,0.2c0.558,0,1.17-0.093,1.831-0.284s1.343-0.438,2.038-0.74c0.69-0.302,1.396-0.65,2.115-1.042
	c0.717-0.393,1.4-0.79,2.051-1.192c0.994-0.62,1.999-1.314,3.012-2.045c0.716,1.532,1.533,2.79,2.464,3.742
	c1.044,1.064,2.17,1.597,3.379,1.597c0.759,0,1.579-0.106,2.455-0.319c0.872-0.213,1.77-0.498,2.689-0.859
	c0.918-0.357,1.831-0.766,2.739-1.225c0.911-0.461,1.786-0.926,2.64-1.396c0.222-0.126,0.442-0.264,0.663-0.394
	c0.366,0.639,0.782,1.218,1.265,1.721c0.782,0.818,1.686,1.447,2.704,1.883c1.021,0.438,2.067,0.656,3.145,0.656
	c1.229,0,2.505-0.331,3.814-0.992c1.311-0.66,2.57-1.529,3.783-2.605l-0.908,3.127c-1.613,1.322-3.212,2.71-4.79,4.168
	c-1.579,1.457-3.092,2.936-4.538,4.438c-1.447,1.502-2.788,3.009-4.019,4.523c-1.231,1.512-2.297,2.969-3.191,4.369
	c-0.9,1.402-1.604,2.734-2.117,4.002c-0.517,1.266-0.775,2.403-0.775,3.41c0,1.457,0.247,2.623,0.738,3.498
	c0.491,0.873,1.116,1.547,1.866,2.017c0.751,0.47,1.567,0.784,2.452,0.94c0.886,0.156,1.714,0.236,2.474,0.236
	c1.928,0,3.686-0.332,5.275-0.992c1.594-0.662,3.033-1.586,4.323-2.773s2.44-2.611,3.461-4.27c1.022-1.658,1.929-3.479,2.723-5.463
	c0.795-1.984,1.485-4.111,2.068-6.387c0.584-2.275,1.087-4.613,1.516-7.01c2.19-1.346,6.157-3.173,12.846-10.066
	C235.481,99.256,240.748,91.834,244.253,79.89z M28.24,77.187c0.192-1.774,0.523-3.83,0.991-6.168
	c0.466-2.339,1.155-5.014,2.062-8.028c0.908-3.011,2.161-6.499,3.758-10.46c0.522-1.349,1.111-2.359,1.771-3.034
	c0.663-0.673,1.625-1.01,2.89-1.01c0.717,0,1.278,0.336,1.695,1.01c0.41,0.675,0.616,1.742,0.616,3.198
	c0,1.047-0.433,2.574-1.301,4.582c-0.866,2.008-1.987,4.325-3.359,6.953c-1.381,2.628-2.919,5.475-4.621,8.542
	c-1.71,3.068-3.401,6.184-5.079,9.347C27.856,80.606,28.051,78.961,28.24,77.187z M29.911,122.623
	c-0.095,1.554-0.287,2.984-0.574,4.292c-0.291,1.306-0.72,2.386-1.279,3.237c-0.567,0.854-1.315,1.279-2.251,1.279
	c-0.305,0-0.6-0.184-0.886-0.557c-0.291-0.369-0.552-1.174-0.784-2.413c-0.237-1.237-0.428-3.054-0.58-5.446
	c-0.151-2.396-0.225-5.613-0.225-9.658c0-0.578,0.027-1.369,0.082-2.371c0.053-1.006,0.123-2.092,0.205-3.262
	c0.084-1.169,0.18-2.357,0.287-3.569c0.113-1.211,0.23-2.303,0.353-3.28c0.124-0.977,0.253-1.774,0.394-2.395
	c0.137-0.619,0.262-0.928,0.369-0.928c0.33,0,0.689,0.37,1.074,1.114c0.385,0.743,0.763,1.712,1.135,2.909
	c0.371,1.195,0.729,2.552,1.072,4.065c0.343,1.513,0.647,3.032,0.907,4.559c0.263,1.526,0.47,2.993,0.619,4.396
	c0.152,1.402,0.228,2.586,0.228,3.55C30.057,119.574,30.008,121.068,29.911,122.623z M93.814,91.516
	c0.043-0.694,0.139-1.412,0.289-2.153c0.145-0.74,0.354-1.473,0.636-2.201c0.281-0.729,0.65-1.377,1.109-1.951
	c0.459-0.571,1.029-1.035,1.716-1.396c0.683-0.358,1.506-0.537,2.47-0.537c0.537,0,0.993,0.325,1.361,0.975
	c0.373,0.65,0.556,1.479,0.556,2.487c0,0.718-0.279,1.458-0.84,2.219c-0.562,0.763-1.252,1.469-2.069,2.118
	c-0.815,0.65-1.7,1.182-2.657,1.596c-0.953,0.417-1.829,0.624-2.637,0.624C93.748,92.805,93.772,92.21,93.814,91.516z M157.73,98.51
	c-0.27,0.448-0.566,0.879-0.892,1.293c-0.324,0.416-0.669,0.783-1.025,1.109c-0.357,0.325-0.734,0.59-1.129,0.791
	c-0.389,0.202-0.789,0.302-1.189,0.302c-0.784,0-1.422-0.112-1.916-0.335c-0.493-0.225-0.875-0.517-1.144-0.875
	c-0.271-0.358-0.453-0.762-0.557-1.21c-0.099-0.448-0.149-0.897-0.149-1.347c0-1.119,0.201-2.375,0.604-3.764
	c0.403-1.39,0.991-2.769,1.766-4.136c0.774-1.365,1.735-2.638,2.891-3.815c1.154-1.177,2.472-2.124,3.953-2.84
	c0.022-0.022,0.043,0.201,0.067,0.671c0.02,0.472,0.036,1.076,0.051,1.816c0.01,0.74,0.026,1.559,0.047,2.453
	c0.022,0.896,0.047,1.766,0.069,2.605c0.02,0.842,0.054,1.604,0.101,2.288c0.044,0.683,0.099,1.182,0.17,1.496
	C158.927,96.312,158.359,97.479,157.73,98.51z M168.053,83.783v-0.335c0-0.335,0-0.818,0-1.445c0-0.628-0.513-1.363-0.487-2.203
	c0.02-0.84-0.202-1.77-0.144-2.791c0.057-1.019-0.003-2.078,0.086-3.176c0.043-0.539,0.069-1.446,0.204-2.723
	c0.135-1.279,0.283-2.713,0.508-4.304c0.223-1.592,0.485-3.238,0.822-4.942c0.333-1.703,0.722-3.261,1.168-4.674
	c0.447-1.412,0.961-2.572,1.544-3.479c0.579-0.907,1.229-1.361,1.951-1.361c0.401,0,0.705,0.235,0.918,0.707
	c0.217,0.47,0.319,1.311,0.319,2.521c0,0.919-0.067,2.163-0.201,3.733c-0.112,1.187-0.308,2.442-0.588,3.765
	c-0.281,1.323-0.609,2.667-0.991,4.035c-0.385,1.367-0.804,2.728-1.262,4.083c-0.459,1.357-0.394,2.652-0.841,3.882
	C169.985,77.966,169.053,80.871,168.053,83.783z M186.723,75.563c0.314-2.275,0.737-4.487,1.279-6.64
	c0.536-2.15,1.146-4.179,1.831-6.083c0.683-1.906,1.399-3.576,2.149-5.009c0.753-1.434,1.503-2.572,2.253-3.414
	c0.752-0.839,1.451-1.259,2.101-1.259c0.18,0,0.287,0.23,0.321,0.689c0.03,0.46,0.049,1.014,0.049,1.664
	c-0.202,2.039-0.674,4.241-1.409,6.606c-0.743,2.365-1.613,4.735-2.625,7.11c-1.011,2.375-2.078,4.686-3.21,6.925
	c-1.133,2.242-2.201,4.258-3.211,6.05C186.251,80.052,186.41,77.838,186.723,75.563z M209.324,120.765
	c-0.314,1.142-0.697,2.315-1.144,3.514c-0.448,1.198-0.963,2.37-1.544,3.511c-0.586,1.145-1.23,2.165-1.936,3.061
	s-1.479,1.619-2.318,2.17c-0.844,0.548-1.73,0.822-2.672,0.822c-0.897,0-1.347-0.413-1.347-1.243c0-0.518,0.169-1.167,0.506-1.95
	c0.334-0.784,0.796-1.631,1.376-2.538c0.586-0.908,1.261-1.855,2.036-2.842c0.772-0.985,1.591-1.944,2.451-2.874
	c0.866-0.93,1.751-1.799,2.657-2.605c0.906-0.808,1.799-1.502,2.673-2.084C209.883,118.602,209.639,119.623,209.324,120.765z"/>
</svg>
